<?xml version="1.0" standalone="no"?>
<!DOCTYPE svg PUBLIC "-//W3C//DTD SVG 20010904//EN"
 "http://www.w3.org/TR/2001/REC-SVG-20010904/DTD/svg10.dtd">
<svg version="1.0" xmlns="http://www.w3.org/2000/svg"
 width="179.000000pt" height="179.000000pt" viewBox="0 0 179.000000 179.000000"
 preserveAspectRatio="xMidYMid meet">
<metadata>
Created by potrace 1.14, written by Peter Selinger 2001-2017
</metadata>
<g transform="translate(0.000000,179.000000) scale(0.100000,-0.100000)"
fill="#000000" stroke="none">
<path d="M55 1238 c-45 -26 -53 -48 -54 -154 -1 -62 3 -111 10 -128 25 -55 35
-56 449 -56 l380 0 0 -175 0 -175 436 0 c475 0 477 0 503 57 16 36 14 208 -3
242 -26 50 -35 51 -501 51 l-435 0 0 175 0 175 -382 0 c-271 -1 -389 -4 -403
-12z m146 -110 c1 -13 0 -39 -1 -59 -2 -41 10 -52 52 -51 18 0 28 -4 25 -11
-6 -18 -87 -16 -96 3 -6 12 -7 99 -2 133 3 17 21 5 22 -15z m127 11 c-2 -6 -8
-10 -13 -10 -5 0 -11 4 -13 10 -2 6 4 11 13 11 9 0 15 -5 13 -11z m201 -51 c1
-34 7 -65 13 -69 20 -12 -1 -30 -23 -19 -16 9 -19 22 -19 80 0 52 3 70 14 70
9 0 14 -18 15 -62z m-139 32 c0 -13 7 -20 20 -20 13 0 20 7 20 20 0 11 5 20
10 20 6 0 10 -9 10 -20 0 -11 7 -20 15 -20 8 0 15 -7 15 -15 0 -8 -6 -14 -12
-12 -8 1 -14 -10 -16 -25 -2 -21 1 -28 13 -28 9 0 15 -6 12 -12 -2 -7 -13 -11
-23 -10 -24 5 -22 1 -26 41 -3 23 -10 35 -21 37 -23 3 -24 -51 -1 -60 19 -7
12 -19 -12 -22 -17 -3 -27 16 -29 53 0 13 -7 28 -15 33 -12 7 -11 10 3 16 10
4 16 12 13 19 -5 14 2 25 16 25 4 0 8 -9 8 -20z m-62 -65 c0 -25 -7 -50 -15
-56 -11 -9 -13 -1 -13 45 0 43 3 56 15 56 12 0 15 -11 13 -45z m332 25 c15
-29 5 -40 -37 -40 -30 0 -33 -2 -24 -14 7 -8 23 -13 37 -10 27 5 33 -10 8 -20
-51 -20 -98 36 -69 80 20 31 70 33 85 4z m353 -338 c11 -28 23 -49 28 -47 4 3
15 28 24 55 16 48 24 57 38 44 7 -7 -41 -123 -59 -143 -11 -12 -17 -5 -39 44
-34 78 -42 109 -25 103 7 -2 22 -27 33 -56z m137 43 c0 -9 -6 -12 -15 -9 -8 4
-12 10 -9 15 8 14 24 10 24 -6z m158 4 c-2 -6 -8 -10 -13 -10 -5 0 -11 4 -13
10 -2 6 4 11 13 11 9 0 15 -5 13 -11z m126 -75 c8 -31 -3 -54 -31 -65 -29 -11
-59 2 -68 31 -10 31 3 58 33 68 33 11 58 -3 66 -34z m-284 -20 c0 -46 -2 -54
-13 -45 -8 6 -13 21 -11 33 1 13 3 33 3 46 1 12 6 22 11 22 6 0 10 -25 10 -56z
m100 42 c0 -9 -9 -12 -27 -9 -27 4 -27 4 -9 -11 11 -9 26 -16 33 -16 17 0 17
-35 1 -47 -12 -8 -19 -9 -55 -5 -7 1 -13 9 -13 17 0 13 4 14 21 4 13 -7 25 -7
31 -1 6 6 -2 14 -21 22 -29 12 -40 37 -24 53 12 13 63 7 63 -7z m58 -36 c-4
-65 -23 -65 -24 0 0 36 3 50 13 50 11 0 13 -13 11 -50z m240 37 c16 -21 20
-66 6 -84 -11 -15 -14 -15 -15 -3 -1 8 -3 22 -4 30 -1 8 -3 23 -4 33 -3 36
-44 10 -46 -30 -2 -49 -20 -40 -23 13 l-3 51 39 1 c22 1 44 -4 50 -11z m109
-3 c2 -7 -6 -10 -22 -7 -15 3 -25 1 -25 -6 0 -6 8 -11 19 -11 43 0 50 -53 9
-64 -25 -6 -61 11 -53 25 4 6 13 5 25 -1 13 -7 21 -7 25 1 8 12 9 11 -28 27
-24 10 -26 15 -17 33 12 22 60 24 67 3z"/>
<path d="M597 1067 c-4 -10 2 -13 19 -13 13 1 25 6 27 11 3 16 -40 17 -46 2z"/>
<path d="M1361 712 c-8 -15 -7 -23 4 -32 21 -18 47 -4 43 22 -4 29 -34 35 -47
10z"/>
</g>
</svg>
